<?xml version="1.0" encoding="UTF-8" standalone="no"?>
<svg width="87px" height="58px" viewBox="0 0 87 58" version="1.1" xmlns="http://www.w3.org/2000/svg" xmlns:xlink="http://www.w3.org/1999/xlink">
    <!-- Generator: Sketch 39 (31667) - http://www.bohemiancoding.com/sketch -->
    <title>20</title>
    <desc>Created with Sketch.</desc>
    <defs>
        <radialGradient cx="50%" cy="50%" fx="50%" fy="50%" r="70.7106781%" id="radialGradient-1">
            <stop stop-color="#8951BC" offset="0%"></stop>
            <stop stop-color="#6C5FB4" offset="100%"></stop>
        </radialGradient>
    </defs>
    <g id="Page-1" stroke="none" stroke-width="1" fill="none" fill-rule="evenodd">
        <g id="Home" transform="translate(-642.000000, -1372.000000)" fill="url(#radialGradient-1)">
            <g id="2-Reasons" transform="translate(0.000000, 965.000000)">
                <path d="M662.878442,407 C665.683023,407 668.208406,407.408995 670.454668,408.226998 C672.700929,409.045001 674.616066,410.181099 676.200134,411.635326 C677.784203,413.089553 678.998205,414.822914 679.842176,416.83546 C680.686147,418.848006 681.108126,421.061774 681.108126,423.47683 C681.108126,425.554297 680.815987,427.475926 680.231699,429.241773 C679.647411,431.00762 678.848897,432.689045 677.836132,434.286098 C676.823366,435.883151 675.648317,437.428244 674.310947,438.921424 C672.973577,440.414603 671.551832,441.927237 670.045668,443.459369 L658.944258,454.833445 C660.372517,454.417952 661.781278,454.08686 663.170584,453.840161 C664.559891,453.593462 665.86478,453.470114 667.085292,453.470114 L677.680322,453.470114 C678.978739,453.470114 680.004474,453.827174 680.757555,454.541303 C681.510637,455.255432 681.887173,456.196771 681.887173,457.365346 L681.887173,464.376763 L642,464.376763 L642,460.481531 C642,459.728449 642.155808,458.923443 642.467428,458.066488 C642.779048,457.209532 643.324375,456.430494 644.103425,455.729349 L660.463398,439.252518 C661.865689,437.850228 663.086182,436.512879 664.124916,435.24043 C665.16365,433.967981 666.020592,432.715027 666.695769,431.481531 C667.370946,430.248035 667.877321,429.014557 668.214909,427.781061 C668.552498,426.547565 668.721289,425.242675 668.721289,423.866353 C668.721289,421.607108 668.182454,419.873747 667.104768,418.666219 C666.027082,417.458691 664.384609,416.854936 662.1773,416.854936 C661.268408,416.854936 660.437434,416.984776 659.684352,417.244459 C658.93127,417.504143 658.256103,417.85471 657.658831,418.296172 C657.06156,418.737634 656.548693,419.256993 656.120215,419.854265 C655.691737,420.451536 655.347662,421.100735 655.087979,421.80188 C654.672485,422.970456 654.146634,423.814414 653.51041,424.333781 C652.874185,424.853148 652.010751,425.112827 650.920081,425.112827 C650.660397,425.112827 650.381242,425.099843 650.082606,425.073875 C649.78397,425.047907 649.478846,425.008955 649.167226,424.957018 L642.779046,423.827401 C643.19454,420.996852 643.993054,418.529896 645.174614,416.426461 C646.356173,414.323025 647.823363,412.570188 649.576226,411.167898 C651.329089,409.765607 653.335113,408.720397 655.594359,408.032236 C657.853604,407.344075 660.281608,407 662.878442,407 Z M728.24043,435.980524 C728.24043,440.940477 727.708087,445.238173 726.643385,448.873741 C725.578683,452.509309 724.105002,455.521591 722.222297,457.910678 C720.339592,460.299766 718.106348,462.07857 715.522498,463.247146 C712.938648,464.415721 710.140602,465 707.128274,465 C704.115946,465 701.330884,464.415721 698.773002,463.247146 C696.21512,462.07857 694.001353,460.299766 692.131632,457.910678 C690.261911,455.521591 688.801214,452.509309 687.749496,448.873741 C686.697778,445.238173 686.171927,440.940477 686.171927,435.980524 C686.171927,431.020571 686.697778,426.722875 687.749496,423.087307 C688.801214,419.451739 690.261911,416.439457 692.131632,414.050369 C694.001353,411.661282 696.21512,409.888969 698.773002,408.733378 C701.330884,407.577787 704.115946,407 707.128274,407 C710.140602,407 712.938648,407.577787 715.522498,408.733378 C718.106348,409.888969 720.339592,411.661282 722.222297,414.050369 C724.105002,416.439457 725.578683,419.451739 726.643385,423.087307 C727.708087,426.722875 728.24043,431.020571 728.24043,435.980524 Z M715.775688,435.980524 C715.775688,432.059304 715.528993,428.84577 715.035594,426.339825 C714.542196,423.83388 713.886505,421.866808 713.068502,420.438549 C712.2505,419.010291 711.322145,418.03 710.283412,417.497649 C709.244678,416.965298 708.192976,416.699127 707.128274,416.699127 C706.063572,416.699127 705.018362,416.965298 703.992612,417.497649 C702.966863,418.03 702.057985,419.010291 701.26595,420.438549 C700.473916,421.866808 699.837701,423.83388 699.357287,426.339825 C698.876872,428.84577 698.636669,432.059304 698.636669,435.980524 C698.636669,439.927712 698.876872,443.147738 699.357287,445.640698 C699.837701,448.133659 700.473916,450.100732 701.26595,451.541974 C702.057985,452.983217 702.966863,453.97 703.992612,454.502351 C705.018362,455.034702 706.063572,455.300873 707.128274,455.300873 C708.192976,455.300873 709.244678,455.034702 710.283412,454.502351 C711.322145,453.97 712.2505,452.983217 713.068502,451.541974 C713.886505,450.100732 714.542196,448.133659 715.035594,445.640698 C715.528993,443.147738 715.775688,439.927712 715.775688,435.980524 Z" id="20"></path>
            </g>
        </g>
    </g>
</svg>